# xmcd CD database file
# Copyright (C) 1993-1996 Ti Kan
#
# Track frame offsets:
#  150
#  19438
#  37443
#  55943
#  69056
#  90233
#  106417
#  122496
#  142246
#  163658
#  182872
#  206903
#  224656
#
# Disc length: 3246 seconds
#
# Revision: 1
# Processed by: cddbd v1.5.2PL0 Copyright (c) Steve Scherf et al.
# Submitted via: Advanced CD Ripper Pro 2.0
#
DISCID=c90cac0d
DTITLE=ÞÜKRAN AY - KLASÝKLER
DYEAR=2003
DGENRE=other
TTITLE0=BÝR FÝNCAN KAHVE
TTITLE1=SEVEMEDÝM KARA GÖZLÜM
TTITLE2=ZALÝMÝN ZULMÜ
TTITLE3=HER GECE ÝÇÝYORUM
TTITLE4=KISKANIRIM SENÝ BEN
TTITLE5=SABIR TAÞI
TTITLE6=ELEDÝM ELEDÝM HÖLÜK HELEDÝM
TTITLE7=KAHVERENGÝ GÖZLERÝN
TTITLE8=KALBÝMÝ KIRA KIRA
TTITLE9=ÝNTÝZAR
TTITLE10=HIÇKIRIK
TTITLE11=HANÝ SÖZ VERMÝÞTÝN
TTITLE12=BIÇAK YARASI
EXTD=
EXTT0=
EXTT1=
EXTT2=
EXTT3=
EXTT4=
EXTT5=
EXTT6=
EXTT7=
EXTT8=
EXTT9=
EXTT10=
EXTT11=
EXTT12=
PLAYORDER=
